HIERARCHY
ROOT Hips
{
  OFFSET 122.187 97.6396 139.654
  CHANNELS 6 Xposition Yposition Zposition Zrotation Xrotation Yrotation
  JOINT RightUpLeg
  {
    OFFSET -8.9458 -8.66707 0.101652
    CHANNELS 3 Zrotation Xrotation Yrotation
    JOINT RightLeg
    {
      OFFSET 0 -44.4227 1.3727
      CHANNELS 3 Zrotation Xrotation Yrotation
      JOINT RightFoot
      {
        OFFSET 0.253549 -42.0924 -1.46059
        CHANNELS 3 Zrotation Xrotation Yrotation
        JOINT RightToes
        {
          OFFSET 0.04 -4.41509 8.4991
          CHANNELS 3 Zrotation Xrotation Yrotation
          End Site
          {
            OFFSET -0.08 -0.137448 9.77979
          }
        }
      }
    }
  }
  JOINT Spine
  {
    OFFSET 0 11.8905 0
    CHANNELS 3 Zrotation Xrotation Yrotation
    JOINT Spine1
    {
      OFFSET 0 25.6574 0.127663
      CHANNELS 3 Zrotation Xrotation Yrotation
      JOINT HEad
      {
        OFFSET 0 8.73416 0.011341
        CHANNELS 3 Zrotation Xrotation Yrotation
        End Site
        {
          OFFSET -0.29 12.7742 2.51395
        }
      }
      JOINT LeftShoulder1
      {
        OFFSET 8.99 -0.362252 -0.22
        CHANNELS 3 Zrotation Xrotation Yrotation
        JOINT LeftArm
        {
          OFFSET 10.2827 -0.00338 0.322123
          CHANNELS 3 Zrotation Xrotation Yrotation
          JOINT LeftForeArm
          {
            OFFSET 32.7669 0.099144 -1.42434
            CHANNELS 3 Zrotation Xrotation Yrotation
            JOINT LeftHand
            {
              OFFSET 27.5643 0.085362 1.02216
              CHANNELS 3 Zrotation Xrotation Yrotation
              End Site
              {
                OFFSET 16.7443 -0.6 1.50291
              }
            }
          }
        }
      }
      JOINT RightShoulder
      {
        OFFSET -8.99 -0.362252 -0.22
        CHANNELS 3 Zrotation Xrotation Yrotation
        JOINT RightArm
        {
          OFFSET -10.2827 -0.00338 0.322123
          CHANNELS 3 Zrotation Xrotation Yrotation
          JOINT RightForeArm
          {
            OFFSET -32.8971 0.099144 -1.42434
            CHANNELS 3 Zrotation Xrotation Yrotation
            JOINT RightHand
            {
              OFFSET -27.4921 0.085362 1.02216
              CHANNELS 3 Zrotation Xrotation Yrotation
              End Site
              {
                OFFSET -16.6312 -0.6 1.50291
              }
            }
          }
        }
      }
    }
  }
  JOINT LeftUpLeg
  {
    OFFSET 8.9458 -8.66707 0.101652
    CHANNELS 3 Zrotation Xrotation Yrotation
    JOINT LeftLeg
    {
      OFFSET 0 -44.4227 1.3727
      CHANNELS 3 Zrotation Xrotation Yrotation
      JOINT LeftFoot
      {
        OFFSET -0.253549 -42.0924 -1.46059
        CHANNELS 3 Zrotation Xrotation Yrotation
        JOINT LeftToes
        {
          OFFSET -0.04 -4.41509 8.4991
          CHANNELS 3 Zrotation Xrotation Yrotation
          End Site
          {
            OFFSET 0.08 -0.047448 9.77979
          }
        }
      }
    }
  }
}
MOTION
Frames:	10
Frame Time:	0.0166667
111.013 94.2525 167.523 -13.7178 -0.187614 -93.9942 -16.1405 -12.5276 0.298352 35.8774 41.0205 -42.0585 -27.878 1.50714 -1.36469 0.0462048 0.000533403 0.662642 -4.7342 22.6226 -4.925 0.00799025 -1.65713e-008 3.19939e-007 3.23864 1.18859 1.82434 3.97569e-016 4.96962e-016 -0 -130.333 -51.1928 -100.541 -47.1753 58.8767 -57.353 19.6613 17.2272 -12.399 16.2718 10.7484 0.311085 105.321 -12.2219 74.8612 34.347 54.5179 85.2505 19.1504 19.5468 1.22216 23.3897 -8.49437 -7.67423 -24.3254 13.6243 62.124 17.8151 -4.45732 0.942962 -1.18446e-009 1.5602e-007 -4.87132e-009 
110.648 94.3539 167.496 -13.7863 -0.268334 -93.6334 -15.9986 -11.5005 1.20446 35.6393 39.3389 -42.6215 -27.9928 1.40409 -1.37592 0.0462048 0.000533403 0.662642 -4.84924 22.6886 -4.54197 0.00799025 -1.65713e-008 3.19939e-007 2.79904 1.87067 4.45275 -3.97569e-016 -8.94531e-016 1.59028e-015 -128.259 -50.2187 -98.6318 -45.4884 57.9515 -58.545 19.6019 17.2528 -12.5121 16.5242 10.563 -0.056159 105.197 -12.425 74.5993 34.1772 54.6998 85.747 19.15 19.6311 1.04568 23.0653 -8.56496 -6.44475 -23.862 14.6035 60.2131 17.7468 -4.33152 0.937818 -1.18446e-009 1.5602e-007 -4.87132e-009 
110.284 94.474 167.478 -13.844 -0.321204 -93.256 -15.9149 -10.5395 2.0718 35.565 37.694 -43.2636 -28.1921 1.30685 -1.38893 0.0462048 0.000533403 0.662642 -4.97629 22.7756 -4.1806 0.00799025 -1.65713e-008 3.19939e-007 2.42134 2.42941 6.76429 3.97569e-016 0 1.59028e-015 -126.469 -49.3365 -96.9747 -44.0931 57.1405 -59.5626 19.5626 17.2469 -12.6403 16.8197 10.3586 -0.431178 105.011 -12.5466 74.3067 33.9071 54.86 86.309 19.1139 19.7165 0.871152 22.8101 -8.69007 -5.4133 -23.5043 15.5396 58.6223 17.6666 -4.19124 0.929813 -1.18447e-009 1.5602e-007 -4.87132e-009 
109.924 94.6019 167.469 -13.89 -0.347464 -92.8775 -15.8789 -9.64478 2.90408 35.6375 36.1249 -43.9556 -28.4596 1.21834 -1.40276 0.0462048 0.000533403 0.662642 -5.10936 22.8765 -3.83917 0.00799025 -1.65713e-008 3.19939e-007 2.10299 2.87742 8.76618 -3.97569e-016 -1.2921e-015 -3.18055e-015 -124.913 -48.5463 -95.5299 -42.9338 56.4388 -60.4348 19.4972 17.2682 -12.7658 17.1446 10.1389 -0.808022 104.779 -12.6003 74.0037 33.571 54.9989 86.8935 19.0191 19.7966 0.722233 22.6196 -8.86767 -4.57327 -23.2437 16.4406 57.3449 17.5636 -4.04433 0.918526 -1.18446e-009 1.5602e-007 -4.87131e-009 
109.566 94.7289 167.47 -13.9245 -0.349124 -92.5105 -15.8802 -8.81552 3.70293 35.8345 34.653 -44.6707 -28.7836 1.14017 -1.41679 0.0462048 0.000533403 0.662642 -5.24184 22.9859 -3.51858 0.00799025 -1.65713e-008 3.19939e-007 1.83813 3.22842 10.4704 1.59028e-015 -6.95746e-016 1.59028e-015 -123.555 -47.845 -94.2714 -41.9639 55.8382 -61.1856 19.4287 17.2797 -12.8985 17.4813 9.9075 -1.18347 104.521 -12.5941 73.707 33.1945 55.1138 87.471 18.8846 19.8889 0.609728 22.4887 -9.08939 -3.92086 -23.0761 17.3075 56.3664 17.4296 -3.89652 0.903878 -1.18447e-009 1.5602e-007 -4.87132e-009 
109.205 94.8483 167.481 -13.9491 -0.328234 -92.1656 -15.9088 -8.05052 4.46891 36.1319 33.2886 -45.3864 -29.1556 1.07286 -1.43072 0.0462048 0.000533403 0.662642 -5.36651 23.1003 -3.22182 0.00799025 -1.65713e-008 3.19939e-007 1.61854 3.49674 11.8934 -7.95139e-016 3.97569e-016 -1.59028e-015 -122.377 -47.2348 -93.191 -41.1642 55.3367 -61.8203 19.3336 17.308 -13.0193 17.807 9.66861 -1.55711 104.263 -12.5293 73.4282 32.7963 55.2001 88.0232 18.7213 19.9837 0.539041 22.4119 -9.34263 -3.45547 -23.0025 18.1384 55.6706 17.258 -3.75134 0.885818 -1.18446e-009 1.5602e-007 -4.87131e-009 
108.838 94.9554 167.501 -13.9667 -0.286704 -91.8521 -15.956 -7.34858 5.20313 36.5056 32.0342 -46.085 -29.5688 1.01621 -1.4444 0.0462048 0.000533403 0.662642 -5.47687 23.217 -2.95219 0.00799025 -1.65713e-008 3.19939e-007 1.43543 3.69632 13.0552 -7.95139e-016 -2.18663e-015 1.59028e-015 -121.378 -46.7247 -92.292 -40.5427 54.937 -62.3248 19.2403 17.318 -13.1342 18.1039 9.42392 -1.93142 104.026 -12.4032 73.1706 32.3921 55.2529 88.537 18.5636 20.0796 0.504863 22.3898 -9.60927 -3.17887 -23.0364 18.9199 55.2465 17.05 -3.61049 0.864794 -1.18446e-009 1.5602e-007 -4.87131e-009 
108.462 95.0474 167.53 -13.9803 -0.226453 -91.5782 -16.014 -6.70846 5.90812 36.9326 30.8884 -46.7542 -30.0171 0.969374 -1.45775 0.0462048 0.000533403 0.662642 -5.56901 23.3324 -2.71187 0.00799025 -1.65713e-008 3.19939e-007 1.28112 3.84039 13.9787 -3.44836e-032 2.48481e-015 7.95139e-016 -120.554 -46.3253 -91.575 -40.1186 54.6387 -62.6766 19.1502 17.3141 -13.2437 18.3691 9.17118 -2.30859 103.811 -12.2167 72.9301 31.9996 55.2687 88.9991 18.4305 20.1629 0.500912 22.4246 -9.87409 -3.09246 -23.1956 19.6405 55.0913 16.808 -3.47444 0.841007 -1.18447e-009 1.5602e-007 -4.87131e-009 
108.077 95.1231 167.567 -13.9921 -0.149984 -91.3515 -16.0761 -6.12899 6.58692 37.3913 29.8477 -47.3868 -30.4946 0.931239 -1.47067 0.0462048 0.000533403 0.662642 -5.64297 23.4424 -2.50175 0.00799025 -1.65713e-008 3.19939e-007 1.14987 3.94105 14.6885 -7.95139e-016 -1.2921e-015 -1.59028e-015 -119.887 -46.0417 -91.0275 -39.9016 54.4271 -62.8607 19.0859 17.2722 -13.368 18.6067 8.9088 -2.68723 103.61 -11.9762 72.701 31.6369 55.2467 89.3973 18.3387 20.2352 0.519151 22.5118 -10.1354 -3.19385 -23.4846 20.3093 55.2065 16.5228 -3.34183 0.813644 -1.18446e-009 1.5602e-007 -4.87131e-009 
107.69 95.1801 167.606 -14.0013 -0.0594643 -91.1758 -16.1348 -5.61361 7.23895 37.8632 28.908 -47.9826 -30.9991 0.901692 -1.48284 0.0462048 0.000533403 0.662642 -5.70156 23.5416 -2.32419 0.00799025 -1.65713e-008 3.19939e-007 1.03798 4.00813 15.2099 -0 -2.98177e-015 -0 -119.339 -45.8689 -90.623 -39.8784 54.2728 -62.8812 19.0393 17.2042 -13.5146 18.8099 8.64159 -3.06272 103.427 -11.6885 72.4828 31.316 55.1898 89.7265 18.2912 20.2999 0.545572 22.7255 -10.5493 -4.55457 -24.3678 20.646 56.7155 16.1541 -3.1764 0.770923 -1.18446e-009 1.5602e-007 -4.87132e-009 
